<svg xmlns="http://www.w3.org/2000/svg" width="72" height="72"><path d="M34.5 27.568a6.933 6.933 0 0 1-6.932 6.932H10.432A6.933 6.933 0 0 1 3.5 27.568V10.432A6.933 6.933 0 0 1 10.432 3.5h17.137a6.933 6.933 0 0 1 6.932 6.932v17.136zm-4-17.136A2.932 2.932 0 0 0 27.568 7.5H10.432A2.932 2.932 0 0 0 7.5 10.432v17.137a2.932 2.932 0 0 0 2.932 2.932h17.137a2.932 2.932 0 0 0 2.932-2.932V10.432z"/><path d="M11.5 19.5a1 1 0 0 1-1-1v-1.802c0-2.77 1.848-5.198 4.389-5.198h6.23a1 1 0 1 1 0 2h-6.23c-1.56 0-2.389 1.72-2.389 3.198V18.5a1 1 0 0 1-1 1zM11.119 22.93c-.261 0-.521-.11-.71-.29-.181-.189-.29-.45-.29-.71s.109-.52.29-.71c.38-.37 1.039-.37 1.42 0 .18.19.29.45.29.71a1.007 1.007 0 0 1-1 1zM68.5 27.568a6.933 6.933 0 0 1-6.932 6.932H44.432a6.933 6.933 0 0 1-6.932-6.932V10.432A6.933 6.933 0 0 1 44.432 3.5h17.137a6.933 6.933 0 0 1 6.932 6.932v17.136zm-4-17.136A2.932 2.932 0 0 0 61.568 7.5H44.432a2.932 2.932 0 0 0-2.932 2.932v17.137a2.932 2.932 0 0 0 2.932 2.932h17.137a2.932 2.932 0 0 0 2.932-2.932V10.432zM34.5 61.568a6.933 6.933 0 0 1-6.932 6.932H10.432A6.933 6.933 0 0 1 3.5 61.568V44.432a6.933 6.933 0 0 1 6.932-6.932h17.137a6.933 6.933 0 0 1 6.932 6.932v17.136zm-4-17.136a2.932 2.932 0 0 0-2.932-2.932H10.432A2.932 2.932 0 0 0 7.5 44.432v17.137a2.932 2.932 0 0 0 2.932 2.932h17.137a2.932 2.932 0 0 0 2.932-2.932V44.432zM68.5 61.568a6.933 6.933 0 0 1-6.932 6.932H44.432a6.933 6.933 0 0 1-6.932-6.932V44.432a6.933 6.933 0 0 1 6.932-6.932h17.137a6.933 6.933 0 0 1 6.932 6.932v17.136zm-4-17.136a2.932 2.932 0 0 0-2.932-2.932H44.432a2.932 2.932 0 0 0-2.932 2.932v17.137a2.932 2.932 0 0 0 2.932 2.932h17.137a2.932 2.932 0 0 0 2.932-2.932V44.432z"/></svg>